<svg xmlns="http://www.w3.org/2000/svg" width="256" height="256">
    <!--<path d="M 0,192 l 32,0 l 128,-128 l 32,0" fill="none" stroke="#808080" stroke-width="48"/>-->
    <path d="M 0,192 a 80,80 0 0,0 56,-24 l 80,-80 a 80,80 0 0,1 56,-24 l 8,0" fill="none" stroke="#808080" stroke-width="48"/>
    <polygon points="192,0 255,64 192,128" fill="#808080" stroke="#808080" stroke-width="1"/>
    <!--<path d="M 0,64 l 32,0 l 32,32" fill="none" stroke="#808080" stroke-width="48"/>-->
    <path d="M 0,64 a 80,80 0 0,1 56,24 l 8,8" fill="none" stroke="#808080" stroke-width="48"/>
    <!--<path d="M 128,160 l 32,32 l 32,0" fill="none" stroke="#808080" stroke-width="48"/>-->
    <path d="M 128,160 l 8,8 a 80,80 0 0,0 56,24 l 8,0" fill="none" stroke="#808080" stroke-width="48"/>
    <polygon points="192,128 255,192 192,255" fill="#808080" stroke="#808080" stroke-width="1"/>
</svg>